<svg width="20" height="32" viewBox="0 0 20 32" fill="none" xmlns="http://www.w3.org/2000/svg">
<path d="M10.35 12.9839V15.9448H10.5062C11.606 15.9448 12.9824 15.2955 13.8302 14.3767L14.0621 14.1253L13.9672 14.0657C13.1096 13.5273 11.8144 13.0994 10.8228 13.0268C10.7065 13.0183 10.5525 13.0051 10.4806 12.9976L10.35 12.9839ZM14.3514 14.31L14.2262 14.4582C13.3432 15.5026 11.9543 16.2095 10.6226 16.2924L10.35 16.3094V18.272L10.6299 18.2545C12.797 18.1196 14.5653 17.4137 15.9828 16.1177L16.1023 16.0086L15.958 15.8283C15.5595 15.3307 15.1314 14.9106 14.6267 14.5219L14.3514 14.31ZM16.3949 16.4272L16.2288 16.5769C14.7679 17.8927 12.8728 18.6347 10.6404 18.7652L10.35 18.7823V20.4314L13.8285 20.438C15.7417 20.4416 17.3766 20.4473 17.4613 20.4508C17.6526 20.4586 17.6429 20.4804 17.6155 20.1001C17.5286 18.8927 17.1408 17.6644 16.5223 16.6385L16.3949 16.4272ZM2.63112 20.9414L2.64374 21.0242C2.65061 21.0698 2.66309 21.2161 2.67157 21.3493C2.73904 22.4098 3.12311 23.6221 3.71088 24.6299L3.8622 24.8893L3.92818 24.8337C5.60346 23.4213 7.30266 22.7565 9.55505 22.6325L9.8521 22.6162V20.9414H2.63112ZM10.35 20.9414V22.6162L10.6404 22.6332C12.8826 22.7644 14.8245 23.5302 16.2617 24.8501L16.3614 24.9414L16.4073 24.8857C16.9266 24.2569 17.5328 22.474 17.6052 21.3621C17.6134 21.2359 17.6255 21.0896 17.632 21.037L17.6438 20.9414H10.35ZM9.8521 23.1264L9.55964 23.1437C7.44875 23.269 5.58148 23.9981 4.27973 25.2051C4.15147 25.324 4.14923 25.3058 4.3199 25.5199C4.7041 26.0018 5.12784 26.4198 5.62284 26.8054L5.87987 27.0058L6.16717 26.7065C7.07526 25.7603 8.66283 25.0406 9.70809 25.1012L9.85224 25.1096L9.8521 23.1264ZM10.35 23.1264V25.0892L10.6226 25.1061C11.9136 25.1864 13.3732 25.9126 14.1584 26.865C14.3292 27.0723 14.3034 27.0746 14.6287 26.8241C15.1234 26.4431 15.5519 26.0235 15.9484 25.5317L16.081 25.3674L15.9722 25.2696C14.5169 23.9616 12.8104 23.2842 10.6175 23.1435L10.35 23.1264ZM9.68342 25.4538C8.59166 25.4538 7.227 26.0853 6.38088 26.9821L6.18294 27.192L6.2439 27.2396C6.85757 27.7187 8.45605 28.2465 9.55333 28.3323C9.69708 28.3435 9.82318 28.3544 9.83345 28.3564C9.84372 28.3584 9.8521 27.7061 9.8521 26.9069V25.4538H9.68342ZM10.35 25.4538V28.3636L10.4806 28.3499C10.5525 28.3424 10.7065 28.3292 10.8228 28.3207C11.7116 28.2556 12.7361 27.9452 13.6215 27.4728C14.0707 27.233 14.0586 27.2646 13.8054 26.9933C12.969 26.0972 11.5901 25.4538 10.5062 25.4538H10.35Z" fill="#0A3470"/>
<path d="M9.2641 20.455C9.23887 20.4291 9.21108 20.3545 9.20233 20.2892C9.17759 20.1043 9.09791 19.9747 8.85767 19.7287L8.63569 19.5013L8.52996 19.5135C8.4569 19.522 8.33302 19.5819 8.12911 19.7075C7.08767 20.3489 5.45577 20.3727 4.45057 19.7611C3.94026 19.4506 2.99092 18.4539 2.87576 18.1078L2.83779 17.9936L2.98471 17.8473C3.16113 17.6716 3.72799 17.3709 4.12317 17.2434C5.10851 16.9254 6.20978 17.1255 7.24349 17.8104C7.34318 17.8764 7.41836 17.9154 7.41056 17.8969C7.08623 17.1307 6.9471 16.5973 6.89772 15.9305L6.8754 15.6292L6.73747 15.3442C6.41362 14.675 6.04589 14.3641 5.25445 14.0905C4.99306 14.0002 5.00512 13.991 5.04469 14.2497C5.1468 14.9173 5.3769 15.4015 5.84822 15.9406C6.009 16.1245 6.05527 16.1526 6.69632 16.4554L6.78344 16.4965L6.62164 16.4815C5.74691 16.4006 4.80185 15.5876 4.45676 14.6191C4.28048 14.1245 4.15769 13.1436 4.26668 13.1007C4.91269 12.8468 6.87056 14.5135 6.87056 15.3173C6.87056 15.4216 6.91512 15.308 6.92903 15.1683C6.9378 15.0802 6.96761 14.8533 6.99529 14.664C7.02296 14.4747 7.06303 14.1994 7.08433 14.0522C7.10562 13.9049 7.18385 13.5106 7.25816 13.1758C7.472 12.2126 7.36344 11.8613 6.68664 11.3266C6.2882 11.0117 6.50216 11.9721 7.00563 12.7584C7.06782 12.8555 7.02699 12.8463 6.84228 12.7214C6.46143 12.4641 6.17621 12.0845 6.03203 11.643L5.96542 11.4391L5.96371 10.9292C5.96107 10.1396 6.00648 10.0663 6.34962 10.3067C6.72849 10.5722 6.90641 10.7996 7.15525 11.3364C7.2981 11.6445 7.35313 11.8077 7.42843 12.1465C7.45412 12.2621 7.4813 12.2274 7.52847 12.0191C7.55307 11.9104 7.60987 11.7297 7.6547 11.6175C7.85755 11.11 8.08935 10.2279 8.09135 9.95596C8.09368 9.63836 8.22492 9.44286 8.31154 9.62796C8.36063 9.73286 8.29432 10.1787 8.17644 10.5362C8.09938 10.77 7.6413 12.5534 7.64277 12.614C7.64306 12.6268 7.68036 12.5669 7.72561 12.481C8.0643 11.8375 8.7392 11.4066 9.48614 11.3571L9.70249 11.3427L9.74621 11.411C9.88183 11.623 9.65797 12.263 9.3009 12.684C8.87703 13.1839 8.00616 13.5924 7.55098 13.5049C7.48855 13.4929 7.46908 13.4993 7.45895 13.5351C7.43793 13.6094 7.39679 13.9474 7.38049 14.1796C7.37213 14.2988 7.33099 14.6143 7.28906 14.8807C7.17102 15.6307 7.21596 16.2401 7.44275 16.9648C7.5686 17.3669 7.57069 17.3666 7.55157 16.952C7.49383 15.7006 8.26199 14.3017 9.30291 13.7625C10.0786 13.3607 9.92536 15.6625 9.1015 16.7874C8.75494 17.2606 8.43625 17.5784 8.19445 17.6918C8.00966 17.7785 8.01048 17.7496 8.19666 17.6135C9.00646 17.0217 9.42949 15.9489 9.19572 15.0799C9.11721 14.7881 9.06987 14.7917 8.64283 15.1216C7.83102 15.749 7.67118 16.1023 7.69736 17.2113C7.71562 17.9847 7.85531 18.2353 8.79994 19.189C9.39977 19.7946 9.51127 19.9601 9.51825 20.2552C9.52333 20.4699 9.38492 20.5787 9.2641 20.455ZM7.31481 19.8653L7.64705 19.8152L8.03667 19.6087C8.25097 19.495 8.434 19.3943 8.44342 19.3848C8.45283 19.3753 8.30235 19.2183 8.10901 19.0361C7.91567 18.8538 7.67107 18.623 7.56546 18.5233C6.88038 17.8761 6.04144 17.7765 5.1468 18.2363C4.86741 18.3798 4.8648 18.3859 4.99043 18.5995C5.33408 19.184 6.0273 19.7646 6.49718 19.8614C6.57248 19.8769 6.65649 19.8941 6.68387 19.8996C6.80078 19.9232 7.00373 19.9122 7.31481 19.8653ZM7.85544 13.3364C8.32334 13.2493 8.97233 12.5596 9.04888 12.0681L9.06606 11.9578L8.94531 11.9742C8.39911 12.0484 8.25321 12.1312 7.95706 12.5353C7.63194 12.9789 7.55799 13.0986 7.52795 13.23L7.49734 13.3638H7.60254C7.6604 13.3638 7.7742 13.3515 7.85544 13.3364ZM8.63832 10.0802C8.6381 10.0619 8.67292 9.9128 8.71575 9.7488C8.88302 9.10836 8.74867 8.22277 8.49295 8.28009C8.08439 8.37166 7.73574 9.32062 7.90309 9.88561C7.96569 10.097 7.91515 10.1441 7.83123 9.95262C7.51506 9.23119 7.79458 8.16239 8.46948 7.51215C8.70009 7.28996 8.71172 7.28721 8.80887 7.43182C9.14958 7.939 9.301 8.63615 9.16282 9.06143C9.08327 9.30624 8.63949 10.1682 8.63832 10.0802Z" fill="#0A3470"/>
<path d="M9.35403 31.9791C2.13112 31.5108 -2.03704 24.0169 1.00644 16.9711C1.53032 15.7583 2.86522 13.2057 3.443 12.3119C3.51597 12.199 3.99484 11.3611 4.50716 10.4498C5.01947 9.53845 5.67386 8.3861 5.96136 7.88898C6.51642 6.92923 6.65971 6.67655 6.99439 6.06738C7.10994 5.85707 7.37643 5.37524 7.5866 4.99667C8.02016 4.21567 8.70382 2.8095 9.31562 1.44037C9.5443 0.92859 9.75806 0.452505 9.79063 0.382398C9.8232 0.312292 9.8755 0.197572 9.90686 0.127466L9.96388 0L9.97751 0.883316L9.86845 1.14272C9.15898 2.83028 8.45759 4.26896 7.53532 5.92839C7.25052 6.44083 6.99155 6.90824 6.95983 6.96707C6.92812 7.02591 6.21889 8.2962 5.38377 9.78995C4.54865 11.2837 3.68381 12.8354 3.46192 13.2381C0.938338 17.818 0.474648 20.8366 1.80905 23.998C5.09318 31.7787 16.1961 31.02 18.4878 22.8584C18.7306 21.9938 18.8006 21.4322 18.7999 20.3563L18.7993 19.5023L18.7172 18.9797C18.517 17.7047 18.2663 16.8423 17.8168 15.8823C17.7642 15.7701 17.6096 15.4317 17.4731 15.1302C17.0503 14.1961 17.0084 14.1087 16.7957 13.7153C16.682 13.505 16.5426 13.2469 16.4859 13.1418C16.4293 13.0366 16.3189 12.8377 16.2407 12.6999C15.9001 12.0999 15.9005 12.1037 16.1822 12.117L16.3767 12.1262L16.4671 12.2707C16.5809 12.4527 17.0018 13.1595 17.1073 13.3457C17.151 13.4228 17.2861 13.658 17.4075 13.8683C18.8086 16.2942 19.694 18.6068 19.919 20.4281C20.7086 26.8194 15.6179 32.3852 9.35403 31.9791Z" fill="#0A3470"/>
</svg>
