<svg width="60" height="50" viewBox="0 0 62 53" fill="none" xmlns="http://www.w3.org/2000/svg">
<path d="M16.4395 46.1076C14.6301 45.9695 11.9944 45.1198 10.9825 44.3485L10.8818 44.2718L11.2082 43.934C12.6034 42.49 14.8537 41.4731 16.6539 41.4731H16.932V43.8126C16.932 45.0994 16.9182 46.1496 16.9013 46.1464C16.8843 46.1432 16.6765 46.1257 16.4395 46.1076ZM17.7529 43.8156V41.4731H18.0106C19.798 41.4731 22.0716 42.5091 23.4507 43.9519C23.8683 44.3887 23.8882 44.3379 23.1475 44.7239C21.6876 45.4846 19.9984 45.9843 18.5328 46.089C18.3409 46.1027 18.087 46.1239 17.9684 46.136L17.7529 46.1581V43.8156ZM24.0328 43.7453C22.7382 42.2117 20.3314 41.0427 18.2026 40.9134L17.7529 40.8861V39.306V37.7259L18.1942 37.7535C21.8102 37.9799 24.624 39.0708 27.0237 41.1767L27.203 41.334L26.9846 41.5985C26.3307 42.3904 25.6243 43.0659 24.8085 43.6793C24.272 44.0826 24.3145 44.079 24.0328 43.7453ZM9.9582 43.6494C9.14198 43.0286 8.44333 42.3556 7.80979 41.5797C7.52837 41.2351 7.53218 41.2643 7.74367 41.0728C9.89018 39.1294 12.969 37.9557 16.4498 37.7539L16.932 37.7259L16.9321 39.3225L16.9322 40.919L16.6945 40.9055C14.9709 40.8078 12.3532 41.9666 10.8558 43.4901L10.3822 43.9719L9.9582 43.6494ZM27.5011 40.5011C25.1313 38.3761 21.9293 37.1431 18.232 36.9319L17.7529 36.9046V35.5563V34.2081H23.7665H29.7801L29.7606 34.362C29.7499 34.4467 29.73 34.6822 29.7164 34.8854C29.597 36.6756 28.5976 39.5461 27.7412 40.5586L27.6653 40.6483L27.5011 40.5011ZM6.80559 40.1465C5.83637 38.524 5.20312 36.5723 5.09186 34.8648C5.07789 34.6504 5.05719 34.4149 5.04586 34.3415L5.02527 34.2081H10.9787H16.932V35.5563V36.9045L16.4422 36.9308C12.7281 37.1305 9.9263 38.2007 7.16385 40.4749L7.05517 40.5643L6.80559 40.1465ZM23.489 33.3975L17.7529 33.3869V32.0594V30.7318L18.232 30.7044C21.9132 30.4942 25.0377 29.2995 27.4468 27.181L27.7208 26.9401L27.9308 27.2802C28.9506 28.932 29.5903 30.9095 29.7336 32.8535C29.7787 33.4659 29.7946 33.4307 29.4791 33.4181C29.3394 33.4126 26.6438 33.4033 23.489 33.3975ZM17.7529 28.3302V26.7503L18.2026 26.723C20.3986 26.5896 22.6886 25.4515 24.1446 23.7698L24.3512 23.5312L24.805 23.8724C25.6373 24.4982 26.3432 25.1745 27.0003 25.9757L27.2383 26.2659L27.0414 26.4417C24.7039 28.5283 21.7881 29.6648 18.2147 29.882L17.7529 29.9101V28.3302ZM17.7529 23.7797V21.3962L17.9684 21.4182C18.087 21.4304 18.3409 21.4515 18.5328 21.4653C20.1678 21.5821 22.3033 22.271 23.7175 23.1379L23.8742 23.234L23.4918 23.6386C22.0937 25.1179 19.8242 26.1633 18.0106 26.1633H17.7529V23.7797ZM30.8053 17.1539V16.8461H30.9499C31.1665 16.8461 31.1747 16.7908 31.1747 15.3247V14.014H32.0161H32.8575V15.7173V17.4207H32.5913H32.325L32.3142 16.0354L32.3034 14.6502H32.0161H31.7288L31.7083 15.8815C31.6822 17.4464 31.6762 17.4617 31.0953 17.4617H30.8053L30.8053 17.1539ZM38.1113 17.1949V16.9282H38.2761C38.4179 16.9282 38.4522 16.9096 38.5222 16.7948C38.6475 16.5893 38.632 16.5159 38.1934 15.2392C37.9676 14.5821 37.7829 14.0376 37.7829 14.0292C37.7829 14.0208 37.9207 14.014 38.089 14.014H38.3951L38.5174 14.4142C38.5847 14.6343 38.6905 14.9855 38.7524 15.1947C38.8893 15.6565 38.8801 15.6657 39.0904 14.8554C39.1841 14.4942 39.2722 14.1571 39.286 14.1063C39.3089 14.0223 39.8762 13.9515 39.8762 14.0326C39.8762 14.1275 38.9879 16.9829 38.9114 17.1339C38.7738 17.4055 38.6807 17.4617 38.3689 17.4617H38.1113V17.1949ZM40.6864 17.3766C39.9936 17.0109 39.8027 15.1346 40.3811 14.3763C40.9249 13.6634 41.8819 13.917 42.0866 14.8282L42.1255 15.0014L41.9757 15.0651C41.6591 15.1997 41.5802 15.1903 41.5267 15.0117C41.4296 14.6877 41.1581 14.5408 40.9313 14.6895C40.4066 15.0333 40.5697 16.8461 41.1253 16.8461C41.3043 16.8461 41.5591 16.5086 41.5591 16.2715C41.5591 16.1264 41.9247 16.1941 42.1281 16.3768C42.1676 16.4123 41.9573 16.9737 41.8481 17.1245C41.6086 17.4551 41.0605 17.5741 40.6864 17.3766ZM18.1224 15.7173V14.014H18.3891H18.6559V14.6707V15.3274H19.0664H19.4768V14.6707V14.014H19.7642H20.0515V15.7173V17.4207H19.7642H19.4768V16.6804V15.9401L19.0767 15.9518L18.6765 15.9636L18.6652 16.6921L18.654 17.4207H18.3882H18.1223L18.1224 15.7173ZM20.3138 17.3489C20.3257 17.3094 20.5033 16.6398 20.7086 15.861C20.9138 15.0822 21.109 14.348 21.1424 14.2294L21.203 14.014H21.4863H21.7695L21.8311 14.2294C22.0203 14.8921 22.6784 17.3367 22.6784 17.3768C22.6784 17.4095 22.5861 17.4205 22.3833 17.4122L22.0882 17.4002L22.0529 17.2565C22.0336 17.1775 21.9904 17.0159 21.957 16.8974L21.8962 16.6819H21.4888H21.0815L21.0399 16.8325C21.017 16.9154 20.9762 17.0816 20.9493 17.2019L20.9004 17.4207H20.5963C20.3258 17.4207 20.2946 17.4128 20.3138 17.3489ZM21.7342 16.0354C21.7341 15.9939 21.534 15.2408 21.5025 15.1632C21.4829 15.115 21.2473 15.9065 21.2428 16.0354C21.2422 16.0524 21.3526 16.0662 21.488 16.0662C21.6235 16.0662 21.7343 16.0524 21.7342 16.0354ZM22.9657 15.7173V14.014H23.2325H23.4993V14.6707V15.3274H23.9097H24.3202V14.6707V14.014H24.6075H24.8948V15.7173V17.4207H24.6075H24.3202V16.6804V15.9401L23.92 15.9518L23.5198 15.9636L23.5086 16.6921L23.4974 17.4207H23.2315H22.9657L22.9657 15.7173ZM26.3724 15.7173V14.014H27.2754H28.1784V14.3218V14.6296H27.5627H26.947V14.9945V15.3594L27.3883 15.3746C28.1188 15.3998 28.3631 15.6612 28.3631 16.418C28.3631 17.2552 28.1549 17.4207 27.1016 17.4207H26.3724V15.7173ZM27.7027 16.6787C27.9881 16.3396 27.7294 15.9841 27.1974 15.9841H26.947V16.3946V16.805H27.2717H27.5965L27.7027 16.6787ZM28.7941 15.7173V14.014H29.6971H30.6V14.3207V14.6275L29.9741 14.6388L29.3482 14.6502L29.3363 15.0093L29.3245 15.3685H29.9007H30.4769V15.6546V15.9408L29.9125 15.9522L29.3482 15.9636L29.3365 16.3843L29.3248 16.805H29.9829H30.6411V17.1129V17.4207H29.7176H28.7941L28.7941 15.7173ZM33.1199 17.3489C33.1318 17.3094 33.3094 16.6398 33.5146 15.861C33.7199 15.0822 33.9151 14.348 33.9484 14.2294L34.0091 14.014H34.2923H34.5756L34.6371 14.2294C34.8263 14.8921 35.4844 17.3367 35.4844 17.3768C35.4844 17.4095 35.3922 17.4205 35.1893 17.4122L34.8942 17.4002L34.859 17.2565C34.8396 17.1775 34.7964 17.0159 34.763 16.8974L34.7023 16.6819H34.2949H33.8875L33.8459 16.8325C33.823 16.9154 33.7823 17.0816 33.7554 17.2019L33.7064 17.4207H33.4023C33.1319 17.4207 33.1007 17.4128 33.1199 17.3489ZM34.5403 16.0354C34.5401 15.9939 34.3401 15.2408 34.3086 15.1632C34.289 15.115 34.0533 15.9065 34.0489 16.0354C34.0483 16.0524 34.1587 16.0662 34.2941 16.0662C34.4295 16.0662 34.5403 16.0524 34.5403 16.0354ZM35.7717 15.7173V14.014L36.3156 14.0158C37.3342 14.0191 37.5495 14.1716 37.6067 14.9306C37.6684 15.748 37.4097 16.1052 36.7271 16.1453L36.3258 16.1688L36.3145 16.7948L36.3032 17.4207H36.0374H35.7717L35.7717 15.7173ZM36.8412 15.4904C37.2912 15.2495 36.9915 14.5856 36.4563 14.6375L36.3258 14.6502L36.3142 15.0914L36.3025 15.5326H36.5324C36.6588 15.5326 36.7977 15.5136 36.8412 15.4904ZM42.5442 15.7173V14.014H42.8109H43.0777V14.9854C43.0777 15.5196 43.0878 15.9466 43.1002 15.9343C43.1126 15.9219 43.2959 15.4894 43.5077 14.9731L43.8926 14.0345L44.1829 14.0224L44.4733 14.0104V15.7155V17.4207H44.2065H43.9397V16.4684C43.9397 15.9287 43.9243 15.5331 43.9041 15.5552C43.8845 15.5766 43.6972 16.0052 43.4877 16.5074L43.1069 17.4207H42.8255H42.5442V15.7173ZM29.7791 12.3516V11.6744H29.8785C30.0624 11.6744 30.1896 10.8483 30.1896 9.654V8.88333H31.031H31.8724V10.2789V11.6744H31.9751H32.0777V12.3516V13.0289H31.8314H31.5851V12.6585V12.288L30.9181 12.2993L30.2512 12.3106L30.2393 12.6697L30.2275 13.0289H30.0033H29.7792L29.7791 12.3516ZM31.3293 10.597L31.3183 9.51953H31.031H30.7437L30.7164 10.2378C30.6921 10.8778 30.6388 11.393 30.5753 11.6026C30.5556 11.6675 30.5913 11.6744 30.9468 11.6744H31.3402L31.3293 10.597ZM28.033 12.254C27.1077 11.8337 27.1071 9.426 28.0322 8.93369C28.6887 8.58431 29.4371 9.08882 29.5977 9.98898C29.8804 11.5736 29.0815 12.7302 28.033 12.254ZM28.7867 11.5587C29.192 11.1533 29.1631 9.87311 28.7418 9.5731C28.3866 9.32018 28.0146 9.64773 27.9342 10.2843C27.8076 11.2854 28.3096 12.0358 28.7867 11.5587ZM32.9995 12.254C32.0742 11.8337 32.0736 9.426 32.9986 8.93369C33.6551 8.58431 34.4036 9.08882 34.5642 9.98898C34.8469 11.5736 34.0479 12.7302 32.9995 12.254ZM33.7531 11.5587C34.1585 11.1533 34.1296 9.87311 33.7082 9.5731C33.353 9.32018 32.9811 9.64773 32.9006 10.2843C32.7741 11.2854 33.276 12.0358 33.7531 11.5587ZM38.007 12.254C37.0817 11.8337 37.0811 9.426 38.0061 8.93369C38.6626 8.58431 39.4111 9.08882 39.5717 9.98898C39.8544 11.5736 39.0554 12.7302 38.007 12.254ZM38.7606 11.5587C39.166 11.1533 39.1371 9.87311 38.7157 9.5731C38.3605 9.32018 37.9885 9.64773 37.9081 10.2843C37.7816 11.2854 38.2835 12.0358 38.7606 11.5587ZM39.7941 12.0233V11.7154H39.9388C40.1554 11.7154 40.1635 11.6602 40.1635 10.1941V8.88333H41.005H41.8464V10.5867V12.2901H41.5801H41.3139L41.3031 10.9048L41.2923 9.51953H41.005H40.7177L40.6971 10.7509C40.6711 12.3158 40.6651 12.3311 40.0842 12.3311H39.7941L39.7941 12.0233ZM45.0889 12.2851C44.9174 12.2169 44.7651 12.0402 44.6786 11.8089C44.563 11.5 44.5697 11.4778 44.8119 11.3651C45.088 11.2365 45.1146 11.2384 45.1446 11.3881C45.2074 11.7022 45.5311 11.8132 45.7488 11.5955C45.9906 11.3537 45.8585 11.0088 45.5022 10.9518L45.3352 10.9251V10.6225V10.3199H45.441C45.8106 10.3199 45.9163 9.67818 45.5766 9.49641C45.4662 9.43732 45.3141 9.53651 45.2234 9.72676C45.146 9.88913 45.1135 9.89497 44.8354 9.79658L44.6323 9.72476L44.6581 9.5811C44.7578 9.02441 45.2256 8.73151 45.777 8.88054C46.3282 9.02952 46.5481 9.76796 46.2054 10.3192L46.0721 10.5336L46.214 10.6907C46.9145 11.466 46.0632 12.6725 45.0889 12.2851ZM47.4884 12.254C46.5631 11.8337 46.5625 9.426 47.4875 8.93369C48.144 8.58431 48.8925 9.08882 49.0531 9.98898C49.3358 11.5736 48.5368 12.7302 47.4884 12.254ZM48.242 11.5587C48.6474 11.1533 48.6185 9.87311 48.1971 9.5731C47.8419 9.32018 47.4699 9.64773 47.3895 10.2843C47.263 11.2854 47.7649 12.0358 48.242 11.5587ZM18.1224 10.5867V8.88333H19.0869H20.0515V10.5867V12.2901H19.7642H19.4768V10.8945V9.49901H19.0869H18.697V10.8945V12.2901H18.4097H18.1224V10.5867ZM20.544 10.5867V8.88333L21.0879 8.88512C22.1065 8.88848 22.3218 9.04098 22.379 9.79998C22.4407 10.6173 22.182 10.9746 21.4993 11.0147L21.0981 11.0382L21.0868 11.6641L21.0755 12.2901H20.8097H20.544L20.544 10.5867ZM21.6135 10.3597C22.0635 10.1189 21.7638 9.45501 21.2286 9.50689L21.0981 9.51953L21.0865 9.96076L21.0748 10.402H21.3047C21.4311 10.402 21.57 10.383 21.6135 10.3597ZM22.8015 10.5867V8.88333H23.0683H23.3351V9.85473C23.3351 10.389 23.3452 10.816 23.3576 10.8036C23.3699 10.7913 23.5533 10.3588 23.765 9.84251L24.1499 8.90385L24.4403 8.89179L24.7306 8.87973V10.5849V12.2901H24.4638H24.197V11.3378C24.197 10.798 24.1816 10.4025 24.1614 10.4246C24.1419 10.446 23.9545 10.8745 23.745 11.3768L23.3642 12.2901H23.0828H22.8015V10.5867ZM25.1821 10.5867V8.88333L25.7259 8.88512C26.7446 8.88848 26.9599 9.04098 27.0171 9.79998C27.0788 10.6173 26.82 10.9746 26.1374 11.0147L25.7362 11.0382L25.7249 11.6641L25.7135 12.2901H25.4478H25.1821L25.1821 10.5867ZM26.2515 10.3597C26.7016 10.1189 26.4019 9.45501 25.8666 9.50689L25.7362 9.51953L25.7246 9.96076L25.7129 10.402H25.9427C26.0692 10.402 26.2081 10.383 26.2515 10.3597ZM34.9919 10.5867V8.88333H35.9564H36.921V10.5867V12.2901H36.6337H36.3464V10.8945V9.49901H35.9564H35.5665V10.8945V12.2901H35.2792H34.9919V10.5867ZM42.38 10.5867V8.88333H42.6673H42.9546V9.56058V10.2378L43.3137 10.2381C44.0899 10.2385 44.3702 10.5215 44.3704 11.305C44.3706 12.1257 44.1602 12.2899 43.1085 12.29L42.38 12.2901V10.5867ZM43.7103 11.5481C43.9956 11.209 43.737 10.8535 43.2049 10.8535H42.9546V11.2639V11.6744H43.2793H43.604L43.7103 11.5481ZM49.4808 10.5826V8.87521L50.1888 8.88969C51.3123 8.91266 51.7579 9.56282 51.2 10.3651L51.1257 10.4718L51.2488 10.5897C51.522 10.8514 51.5657 11.4742 51.3418 11.9145C51.1625 12.267 51.0935 12.2899 50.2093 12.29L49.4808 12.2901V10.5826ZM50.7308 11.6489C50.8221 11.6138 50.9173 11.4174 50.9173 11.2639C50.9173 10.9414 50.6961 10.7948 50.2485 10.8206L50.0349 10.833L50.0232 11.2537L50.0115 11.6744H50.3379C50.5175 11.6744 50.6943 11.6629 50.7308 11.6489ZM50.7345 10.096C51.0106 9.81997 50.8174 9.52502 50.3584 9.5218L50.0349 9.51952L50.023 9.85815L50.011 10.1968H50.3224C50.5983 10.1968 50.6452 10.1853 50.7345 10.096ZM51.6722 12.2182C51.6841 12.1787 51.8617 11.5092 52.067 10.7304C52.2722 9.95153 52.4674 9.21734 52.5008 9.09882L52.5614 8.88333H52.8447H53.1279L53.1895 9.09882C53.3787 9.76145 54.0368 12.206 54.0368 12.2462C54.0368 12.2788 53.9445 12.2899 53.7417 12.2816L53.4466 12.2695L53.4113 12.1259C53.392 12.0469 53.3488 11.8853 53.3154 11.7667L53.2546 11.5513H52.8472H52.4399L52.3983 11.7019C52.3754 11.7847 52.3346 11.951 52.3077 12.0713L52.2588 12.2901H51.9547C51.6842 12.2901 51.653 12.2821 51.6722 12.2182ZM53.0926 10.9048C53.0925 10.8633 52.8924 10.1102 52.8609 10.0326C52.8413 9.98433 52.6057 10.7758 52.6012 10.9048C52.6006 10.9217 52.711 10.9356 52.8465 10.9356C52.9819 10.9356 53.0927 10.9217 53.0926 10.9048ZM54.283 10.5867V8.88333H54.5498H54.8166V9.54005V10.1968H55.2271H55.6375V9.54005V8.88333H55.9248H56.2122V10.5867V12.2901H55.9248H55.6375V11.5498V10.8095L55.2373 10.8212L54.8371 10.833L54.8259 11.5615L54.8147 12.2901H54.5489H54.283L54.283 10.5867ZM56.7047 10.5867V8.88333H56.9715H57.2383V9.85473C57.2383 10.389 57.2484 10.816 57.2608 10.8036C57.2731 10.7913 57.4565 10.3588 57.6682 9.84251L58.0531 8.90385L58.3435 8.89179L58.6338 8.87973V10.5849V12.2901H58.367H58.1002V11.3378C58.1002 10.798 58.0848 10.4025 58.0646 10.4246C58.0451 10.446 57.8577 10.8745 57.6482 11.3768L57.2674 12.2901H56.9861H56.7047V10.5867ZM58.9353 12.1567C59.3459 11.1838 59.3969 11.0798 59.5485 10.908L59.6272 10.8188L59.5048 10.7556C59.0183 10.504 58.9268 9.43006 59.3586 9.03963C59.4838 8.92636 59.7663 8.8854 60.4295 8.88434L61.0555 8.88337V10.5867V12.2901H60.7682H60.4808V11.5879V10.8857L60.3682 10.9139C60.3062 10.9295 60.229 10.9638 60.1967 10.9902C60.1364 11.0393 59.5778 12.176 59.5778 12.2495C59.5778 12.2731 59.4315 12.2901 59.2284 12.2901H58.879L58.9353 12.1567ZM60.4808 9.88894V9.49901H60.2407C59.7965 9.49901 59.6599 9.59532 59.6599 9.90863C59.6599 10.1867 59.7872 10.2789 60.1711 10.2789H60.4808V9.88894ZM23.5295 7.11535C22.8368 6.74966 22.6459 4.87337 23.2243 4.11504C23.768 3.40215 24.725 3.65575 24.9298 4.56698L24.9687 4.74011L24.8189 4.8038C24.5023 4.9384 24.4233 4.92902 24.3698 4.75046C24.2728 4.42648 24.0013 4.27956 23.7744 4.42821C23.2498 4.772 23.4128 6.58481 23.9684 6.58481C24.1474 6.58481 24.4022 6.24732 24.4022 6.01021C24.4022 5.86512 24.7678 5.9328 24.9713 6.11555C25.0107 6.151 24.8005 6.71248 24.6913 6.86321C24.4518 7.19389 23.9037 7.31284 23.5295 7.11535ZM31.9956 6.93369V6.6669H32.1604C32.3022 6.6669 32.3365 6.64834 32.4065 6.5335C32.5318 6.32803 32.5162 6.25461 32.0777 4.97796C31.8519 4.32082 31.6672 3.77631 31.6672 3.76793C31.6672 3.75956 31.805 3.7527 31.9733 3.7527H32.2794L32.4017 4.15289C32.469 4.373 32.5747 4.72424 32.6367 4.93343C32.7736 5.39522 32.7644 5.40443 32.9747 4.59413C33.0684 4.23293 33.1565 3.89585 33.1703 3.84505C33.1932 3.76108 33.7605 3.69021 33.7605 3.77133C33.7605 3.86628 32.8722 6.72167 32.7957 6.87267C32.6581 7.14426 32.565 7.20049 32.2532 7.20049H31.9956V6.93369ZM18.1224 5.45607V3.7527H18.3891H18.6559V4.7241C18.6559 5.25837 18.6661 5.68538 18.6784 5.67302C18.6908 5.66065 18.8741 5.22814 19.0859 4.71188L19.4708 3.77322L19.7611 3.76117L20.0515 3.7491V5.45427V7.15944H19.7847H19.5179V6.2072C19.5179 5.6674 19.5025 5.27184 19.4823 5.29394C19.4627 5.31539 19.2754 5.7439 19.0659 6.24619L18.6851 7.15944H18.4037H18.1224V5.45607ZM20.544 5.45607V3.7527H20.8108H21.0776V4.40942V5.06614H21.488H21.8985V4.40942V3.7527H22.1858H22.4731V5.45607V7.15944H22.1858H21.8985V6.41914V5.67885L21.4983 5.69059L21.0981 5.70234L21.0869 6.43089L21.0757 7.15944H20.8098H20.544L20.544 5.45607ZM25.8799 5.76391V4.36838H25.5515H25.2231V4.06054V3.7527H26.1672H27.1112V4.06054V4.36838H26.7829H26.4545V5.76391V7.15944H26.1672H25.8799V5.76391ZM27.4396 5.45607V3.7527H27.7064H27.9732V4.7241C27.9732 5.25837 27.9833 5.68538 27.9956 5.67302C28.008 5.66065 28.1914 5.22814 28.4031 4.71188L28.788 3.77322L29.0784 3.76117L29.3687 3.7491V5.45427V7.15944H29.1019H28.8351V6.2072C28.8351 5.6674 28.8197 5.27184 28.7995 5.29394C28.78 5.31539 28.5926 5.7439 28.3831 6.24619L28.0023 7.15944H27.7209H27.4396V5.45607ZM30.3127 5.76391V4.36838H29.9844H29.656V4.06054V3.7527H30.6H31.5441V4.06054V4.36838H31.2157H30.8874V5.76391V7.15944H30.6H30.3127V5.76391ZM34.4993 5.76391V4.36838H34.171H33.8426V4.06054V3.7527H34.7866H35.7307V4.06054V4.36838H35.4023H35.074V5.76391V7.15944H34.7866H34.4993V5.76391Z" fill="white"/>
<path d="M15.9624 33.4249C15.9208 33.3833 15.875 33.2632 15.8606 33.158C15.8198 32.8603 15.6884 32.6517 15.2922 32.2555L14.9262 31.8895L14.7519 31.9091C14.6314 31.9227 14.4271 32.0192 14.0909 32.2214C12.3736 33.2541 9.68272 33.2924 8.02521 32.3077C7.18375 31.8078 5.61835 30.2031 5.42846 29.6458L5.36584 29.4621L5.60812 29.2265C5.89901 28.9436 6.83372 28.4594 7.48536 28.2541C9.11012 27.7421 10.926 28.0643 12.6306 29.167C12.7949 29.2733 12.9189 29.336 12.906 29.3063C12.3712 28.0728 12.1418 27.2139 12.0604 26.1403L12.0236 25.6552L11.7962 25.1963C11.2622 24.1189 10.6558 23.6184 9.35076 23.1779C8.91975 23.0325 8.93963 23.0177 9.00488 23.4342C9.17326 24.509 9.55267 25.2886 10.3299 26.1566C10.595 26.4527 10.6713 26.498 11.7283 26.9854L11.872 27.0516L11.6052 27.0275C10.1628 26.8972 8.60446 25.5882 8.03542 24.029C7.74475 23.2325 7.54228 21.6533 7.722 21.5843C8.78723 21.1755 12.0156 23.8589 12.0156 25.1531C12.0156 25.3209 12.0891 25.1381 12.112 24.9131C12.1265 24.7713 12.1757 24.406 12.2213 24.1012C12.2669 23.7964 12.333 23.3532 12.3681 23.1161C12.4032 22.8791 12.5322 22.2442 12.6548 21.7052C13.0074 20.1544 12.8283 19.5888 11.7124 18.7278C11.0553 18.221 11.4081 19.7671 12.2384 21.0331C12.3409 21.1894 12.2736 21.1746 11.969 20.9736C11.341 20.5593 10.8707 19.9481 10.6329 19.2374L10.5231 18.909L10.5203 18.0881C10.5159 16.8167 10.5908 16.6988 11.1566 17.0858C11.7814 17.5132 12.0747 17.8793 12.4851 18.7436C12.7206 19.2397 12.8113 19.5025 12.9355 20.048C12.9779 20.234 13.0227 20.1783 13.1005 19.8428C13.141 19.6678 13.2347 19.3769 13.3086 19.1963C13.6431 18.3791 14.0253 16.9589 14.0286 16.5211C14.0325 16.0097 14.2489 15.695 14.3917 15.993C14.4727 16.1619 14.3633 16.8797 14.1689 17.4553C14.0419 17.8317 13.2865 20.7031 13.2889 20.8007C13.2894 20.8213 13.3509 20.7249 13.4255 20.5864C13.984 19.5504 15.0969 18.8567 16.3285 18.7769L16.6853 18.7538L16.7574 18.8638C16.981 19.2051 16.6119 20.2354 16.0231 20.9134C15.3242 21.7181 13.8881 22.3759 13.1376 22.2351C13.0346 22.2158 13.0025 22.2261 12.9858 22.2837C12.9512 22.4032 12.8833 22.9474 12.8565 23.3213C12.8427 23.5132 12.7748 24.0212 12.7057 24.4501C12.5111 25.6576 12.5852 26.6388 12.9591 27.8055C13.1666 28.453 13.1701 28.4526 13.1386 27.785C13.0434 25.7702 14.31 23.5179 16.0264 22.6498C17.3055 22.0029 17.0528 25.7088 15.6943 27.52C15.1228 28.2818 14.5973 28.7934 14.1986 28.9761C13.8939 29.1158 13.8953 29.0691 14.2023 28.85C15.5376 27.8972 16.2351 26.17 15.8497 24.7709C15.7202 24.301 15.6421 24.3067 14.938 24.838C13.5994 25.8481 13.3358 26.4169 13.379 28.2025C13.4091 29.4477 13.6394 29.8512 15.197 31.3867C16.1861 32.3617 16.37 32.6282 16.3815 33.1033C16.3899 33.449 16.1616 33.6241 15.9624 33.4249ZM12.7482 32.4755L13.296 32.3949L13.9385 32.0623C14.2918 31.8794 14.5936 31.7172 14.6092 31.7019C14.6247 31.6865 14.3765 31.4339 14.0577 31.1404C13.7389 30.8469 13.3356 30.4754 13.1615 30.3148C12.0318 29.2728 10.6485 29.1125 9.17325 29.8527C8.71257 30.0838 8.70826 30.0936 8.9154 30.4376C9.48207 31.3786 10.6251 32.3133 11.3999 32.4692C11.5241 32.4942 11.6626 32.5219 11.7078 32.5308C11.9006 32.5688 12.2352 32.551 12.7482 32.4755ZM13.6396 21.9637C14.4112 21.8235 15.4813 20.7131 15.6075 19.9217L15.6359 19.7442L15.4368 19.7706C14.5361 19.89 14.2955 20.0234 13.8072 20.6739C13.2711 21.3882 13.1492 21.5809 13.0996 21.7924L13.0491 22.0079H13.2226C13.318 22.0079 13.5057 21.988 13.6396 21.9637ZM14.9305 16.7212C14.9302 16.6917 14.9876 16.4516 15.0582 16.1876C15.334 15.1564 15.1125 13.7306 14.6908 13.8229C14.0171 13.9703 13.4423 15.4982 13.7182 16.4078C13.8214 16.7481 13.7381 16.824 13.5997 16.5157C13.0784 15.3542 13.5393 13.6334 14.6521 12.5865C15.0324 12.2287 15.0516 12.2243 15.2118 12.4571C15.7736 13.2737 16.0233 14.3961 15.7954 15.0809C15.6642 15.475 14.9325 16.8629 14.9305 16.7212Z" fill="white"/>
<path d="M16.1107 51.9791C4.2006 51.2251 -2.67242 39.1598 2.34608 27.8157C3.20992 25.863 5.41108 21.7533 6.36381 20.3142C6.48413 20.1325 7.27376 18.7833 8.11853 17.3161C8.96331 15.8488 10.0424 13.9935 10.5164 13.1931C11.4317 11.6479 11.668 11.2411 12.2198 10.2603C12.4103 9.92167 12.8498 9.14592 13.1963 8.5364C13.9112 7.27897 15.0386 5.01497 16.0474 2.81062C16.4245 1.98664 16.7769 1.22013 16.8306 1.10725C16.8843 0.994379 16.9706 0.809676 17.0223 0.696802L17.1163 0.491577L17.1275 1.20266L17.1388 1.91375L16.959 2.3314C15.7891 5.04844 14.6325 7.36476 13.1118 10.0365C12.6422 10.8616 12.2151 11.6141 12.1628 11.7088C12.1105 11.8036 10.9411 13.8488 9.56401 16.2538C8.18695 18.6588 6.76089 21.157 6.395 21.8054C2.23378 29.1793 1.46919 34.0393 3.66953 39.1293C9.08484 51.6564 27.3928 50.435 31.1717 37.2944C31.572 35.9025 31.6875 34.9982 31.6863 33.266L31.6853 31.891L31.55 31.0496C31.2199 28.9968 30.8065 27.6084 30.0652 26.0626C29.9786 25.882 29.7236 25.3372 29.4986 24.8518C28.8013 23.3478 28.7323 23.2071 28.3816 22.5738C28.194 22.2352 27.9641 21.8196 27.8708 21.6503C27.7774 21.481 27.5954 21.1608 27.4663 20.9389C26.9047 19.9729 26.9053 19.979 27.37 20.0004L27.6907 20.0152L27.8397 20.2478C28.0274 20.5409 28.7214 21.6789 28.8953 21.9787C28.9673 22.1028 29.1901 22.4815 29.3904 22.8201C31.7007 26.7259 33.1606 30.4492 33.5317 33.3815C34.8336 43.6718 26.4394 52.633 16.1107 51.9791Z" fill="white"/>
</svg>
