<svg width="281" height="53" viewBox="0 0 281 53" fill="none" xmlns="http://www.w3.org/2000/svg">
<rect x="0.5" y="0.5" width="280" height="52" fill="#3C52B4" stroke="#3C52B4"/>
<path fill-rule="evenodd" clip-rule="evenodd" d="M148.25 23.25H142.75V17.75C142.75 16.2306 141.519 15 140 15C138.481 15 137.25 16.2306 137.25 17.75V23.25H131.75C130.231 23.25 129 24.4806 129 26C129 27.5194 130.231 28.75 131.75 28.75H137.25V34.25C137.25 35.7694 138.481 37 140 37C141.519 37 142.75 35.7694 142.75 34.25V28.75H148.25C149.769 28.75 151 27.5194 151 26C151 24.4806 149.769 23.25 148.25 23.25Z" fill="white"/>
</svg>
