<svg width="281" height="63" viewBox="0 0 281 63" fill="none" xmlns="http://www.w3.org/2000/svg">
<g filter="url(#filter0_d_6_415)">
<rect y="1" width="281" height="53" fill="white"/>
<rect x="0.5" y="1.5" width="280" height="52" stroke="#3C52B4"/>
</g>
<path fill-rule="evenodd" clip-rule="evenodd" d="M148.25 24.25H142.75V18.75C142.75 17.2306 141.519 16 140 16C138.481 16 137.25 17.2306 137.25 18.75V24.25H131.75C130.231 24.25 129 25.4806 129 27C129 28.5194 130.231 29.75 131.75 29.75H137.25V35.25C137.25 36.7694 138.481 38 140 38C141.519 38 142.75 36.7694 142.75 35.25V29.75H148.25C149.769 29.75 151 28.5194 151 27C151 25.4806 149.769 24.25 148.25 24.25Z" fill="#868686"/>
<defs>
</defs>
</svg>
