<svg width="261" height="62" viewBox="0 0 261 62" fill="none" xmlns="http://www.w3.org/2000/svg">
<rect width="261" height="62" rx="15" fill="#D9D9D9"/>
<g clip-path="url(#clip0_6_391)">
<path fill-rule="evenodd" clip-rule="evenodd" d="M146.5 25.5H135.5V14.5C135.5 11.4612 133.037 9 130 9C126.963 9 124.5 11.4612 124.5 14.5V25.5H113.5C110.463 25.5 108 27.9613 108 31C108 34.0387 110.463 36.5 113.5 36.5H124.5V47.5C124.5 50.5387 126.963 53 130 53C133.037 53 135.5 50.5387 135.5 47.5V36.5H146.5C149.537 36.5 152 34.0387 152 31C152 27.9613 149.537 25.5 146.5 25.5Z" fill="#868686"/>
</g>
<defs>
<clipPath id="clip0_6_391">
<rect width="44" height="44" fill="white" transform="translate(108 9)"/>
</clipPath>
</defs>
</svg>
