<svg width="32" height="32" viewBox="0 0 32 32" fill="none" xmlns="http://www.w3.org/2000/svg">
<path fill-rule="evenodd" clip-rule="evenodd" d="M29.004 1.28404C27.2919 -0.428009 24.5161 -0.428015 22.804 1.28404L2.11518 21.9729C1.50318 22.5849 1.08602 23.3644 0.916282 24.213L0.0583808 28.5025C-0.350627 30.5475 1.45241 32.3506 3.49745 31.9416L7.78695 31.0837C8.63564 30.914 9.41511 30.4968 10.0271 29.8848L30.7159 9.19595C32.428 7.48391 32.428 4.70814 30.7159 2.99608L29.004 1.28404ZM24.8706 3.35065C25.4414 2.77998 26.3666 2.77998 26.9374 3.35065L28.6493 5.06271C29.2201 5.63339 29.2201 6.55864 28.6493 7.12933L24.7452 11.0334L20.9667 7.25471L24.8706 3.35065ZM18.8999 9.32135L4.18181 24.0395C3.97781 24.2435 3.83876 24.5033 3.78218 24.7862L2.92428 29.0757L7.21377 28.2177C7.49667 28.1612 7.75649 28.0222 7.96049 27.8182L22.6786 13.1L18.8999 9.32135Z" fill="#A0A0A0"/>
</svg>
