<svg width="15" height="15" viewBox="0 0 15 15" fill="none" xmlns="http://www.w3.org/2000/svg">
<path fill-rule="evenodd" clip-rule="evenodd" d="M13.125 5.625H9.375V1.875C9.375 0.839062 8.53547 0 7.5 0C6.46453 0 5.625 0.839062 5.625 1.875V5.625H1.875C0.839531 5.625 0 6.46406 0 7.5C0 8.53594 0.839531 9.375 1.875 9.375H5.625V13.125C5.625 14.1609 6.46453 15 7.5 15C8.53547 15 9.375 14.1609 9.375 13.125V9.375H13.125C14.1605 9.375 15 8.53594 15 7.5C15 6.46406 14.1605 5.625 13.125 5.625Z" fill="white"/>
</svg>
