<svg width="24" height="24" viewBox="0 0 24 24" fill="none" xmlns="http://www.w3.org/2000/svg">
<g clip-path="url(#clip0_106_2)">
<path d="M3.63405 23.5548C3.3559 23.1664 1.66722 20.8314 0.434492 19.1307L0.00311279 18.5355L0.068899 18.4829C0.105081 18.4539 1.09346 17.6633 2.2653 16.7259C7.00158 12.9371 7.05021 12.899 7.34693 12.7383C8.13277 12.3126 8.96066 12.2161 9.77957 12.4545C10.3123 12.6096 10.8075 12.8707 11.6394 13.4353C11.9119 13.6202 12.1844 13.7974 12.2449 13.8293C12.3482 13.8835 12.5455 13.8881 15.3796 13.9032L18.4041 13.9194L18.5717 14.0239C18.8191 14.1783 19.0469 14.4904 19.1815 14.8593C19.2847 15.1424 19.2857 15.1486 19.2857 15.5006C19.2857 15.8366 19.2813 15.8676 19.2058 16.0698C19.0706 16.4317 18.7835 16.7394 18.3877 16.9467L18.2243 17.0323H15.8468C13.8953 17.0323 13.4694 17.0399 13.4694 17.0748C13.4694 17.1594 13.5499 17.4717 13.6165 17.6457C13.6887 17.8339 13.8738 18.0859 14.0064 18.1762C14.2136 18.3174 14.29 18.3214 16.7411 18.322L19.0699 18.3226L20.3512 16.6251C21.75 14.7719 21.7474 14.7748 22.0163 14.7748C22.1912 14.7748 22.369 14.8832 22.5373 15.0923C22.663 15.2486 22.6687 15.2518 22.8612 15.2739C23.4289 15.339 23.7625 15.5522 23.9217 15.9516C23.9773 16.0909 23.9861 16.1525 23.9862 16.4032C23.9865 16.8018 23.9085 17.1049 23.6484 17.716C23.5481 17.9515 23.2129 18.47 21.3812 21.223C20.727 22.2062 20.1422 23.0871 20.0816 23.1806L19.9714 23.3506L16.2314 23.3527C12.9873 23.3546 12.4555 23.3482 12.2204 23.305C11.9612 23.2574 11.5468 23.1263 10.5551 22.7784C9.39603 22.3716 8.6856 22.2258 7.86293 22.2258C6.52978 22.2258 5.35301 22.7198 4.20956 23.7595L3.94973 23.9957L3.63405 23.5548ZM20.6204 7.59677V1.90323H18.6735H16.7265V4.74194V7.58065H14.0694H11.4122V4.74194V1.90323H9.47754H7.54285V6.4311V10.959L7.25509 10.9819C6.93023 11.0077 6.50918 11.0962 6.26326 11.1903L6.09795 11.2535V5.62676V0H14.0816H22.0653V6.64516V13.2903H21.3428H20.6204V7.59677Z" fill="black"/>
</g>
<defs>
<clipPath id="clip0_106_2">
<rect width="24" height="24" fill="white"/>
</clipPath>
</defs>
</svg>
