<svg width="75" height="138" viewBox="0 0 75 138" fill="none" xmlns="http://www.w3.org/2000/svg">
<path d="M45.316 87.2861C43.9596 91.2907 39.5335 93.464 35.43 92.1403C31.3265 90.8165 29.0996 86.4971 30.456 82.4925C31.8124 78.4879 36.2385 76.3146 40.342 77.6384C44.4455 78.9621 46.6725 83.2815 45.316 87.2861Z" fill="black"/>
<path d="M19.7635 16.3515C19.3418 14.6476 20.385 12.9399 22.0934 12.5373C23.8019 12.1346 25.5286 13.1895 25.9503 14.8933L29.2549 28.2471C29.6765 29.951 28.6334 31.6586 26.9249 32.0613C25.2165 32.4639 23.4897 31.4091 23.0681 29.7052L19.7635 16.3515Z" fill="black"/>
<path d="M19.7635 16.3515C19.3418 14.6476 20.385 12.9399 22.0934 12.5373C23.8019 12.1346 25.5286 13.1895 25.9503 14.8933L29.2549 28.2471C29.6765 29.951 28.6334 31.6586 26.9249 32.0613C25.2165 32.4639 23.4897 31.4091 23.0681 29.7052L19.7635 16.3515Z" fill="black"/>
<path d="M33.2305 4.30851C33.1367 2.65996 34.3972 1.25108 36.046 1.16169C37.6948 1.0723 39.1075 2.33626 39.2014 3.98481L40.2482 22.3748C40.342 24.0233 39.0815 25.4322 37.4327 25.5216C35.7839 25.611 34.3712 24.347 34.2774 22.6985L33.2305 4.30851Z" fill="black"/>
<path d="M33.2305 4.30851C33.1367 2.65996 34.3972 1.25108 36.046 1.16169C37.6948 1.0723 39.1075 2.33626 39.2014 3.98481L40.2482 22.3748C40.342 24.0233 39.0815 25.4322 37.4327 25.5216C35.7839 25.611 34.3712 24.347 34.2774 22.6985L33.2305 4.30851Z" fill="black"/>
<path d="M52.7085 15.2696C53.2458 13.6863 54.9712 12.8196 56.5622 13.3338C58.1532 13.848 59.0073 15.5484 58.47 17.1317L54.5457 28.6956C54.0084 30.279 52.283 31.1457 50.692 30.6315C49.101 30.1173 48.2469 28.4169 48.7842 26.8335L52.7085 15.2696Z" fill="black"/>
<path d="M52.7085 15.2696C53.2458 13.6863 54.9712 12.8196 56.5622 13.3338C58.1532 13.848 59.0073 15.5484 58.47 17.1317L54.5457 28.6956C54.0084 30.279 52.283 31.1457 50.692 30.6315C49.101 30.1173 48.2469 28.4169 48.7842 26.8335L52.7085 15.2696Z" fill="black"/>
<path d="M37.48 137.344C29.8853 137.344 23.4 135.36 18.024 131.392C12.648 127.424 8.53067 121.728 5.672 114.304C2.856 106.88 1.448 97.984 1.448 87.616C1.448 77.376 2.856 68.5866 5.672 61.2479C8.53067 53.8666 12.648 48.2133 18.024 44.2879C23.4 40.3626 29.8853 38.3999 37.48 38.3999C45.1173 38.3999 51.624 40.3626 57 44.2879C62.376 48.2133 66.472 53.8666 69.288 61.2479C72.1467 68.5866 73.576 77.376 73.576 87.616C73.576 97.984 72.1467 106.88 69.288 114.304C66.472 121.728 62.376 127.424 57 131.392C51.624 135.36 45.1173 137.344 37.48 137.344ZM37.48 128.064C46.056 128.064 52.584 124.523 57.064 117.44C61.544 110.315 63.784 100.373 63.784 87.616C63.784 74.9013 61.544 65.0666 57.064 58.112C52.584 51.1573 46.056 47.6799 37.48 47.6799C28.9893 47.6799 22.4827 51.1573 17.96 58.112C13.48 65.0666 11.24 74.9013 11.24 87.616C11.24 100.373 13.48 110.315 17.96 117.44C22.4827 124.523 28.9893 128.064 37.48 128.064Z" fill="black"/>
<path d="M45.316 87.2861C43.9596 91.2907 39.5335 93.464 35.43 92.1403C31.3265 90.8165 29.0996 86.4971 30.456 82.4925C31.8124 78.4879 36.2385 76.3146 40.342 77.6384C44.4455 78.9621 46.6725 83.2815 45.316 87.2861Z" stroke="black" stroke-miterlimit="1.30541"/>
<path d="M19.7635 16.3515C19.3418 14.6476 20.385 12.9399 22.0934 12.5373C23.8019 12.1346 25.5286 13.1895 25.9503 14.8933L29.2549 28.2471C29.6765 29.951 28.6334 31.6586 26.9249 32.0613C25.2165 32.4639 23.4897 31.4091 23.0681 29.7052L19.7635 16.3515Z" stroke="black" stroke-miterlimit="1.30541"/>
<path d="M33.2305 4.30851C33.1367 2.65996 34.3972 1.25108 36.046 1.16169C37.6948 1.0723 39.1075 2.33626 39.2014 3.98481L40.2482 22.3748C40.342 24.0233 39.0815 25.4322 37.4327 25.5216C35.7839 25.611 34.3712 24.347 34.2774 22.6985L33.2305 4.30851Z" stroke="black" stroke-miterlimit="1.30541"/>
<path d="M52.7085 15.2696C53.2458 13.6863 54.9712 12.8196 56.5622 13.3338C58.1532 13.848 59.0073 15.5484 58.47 17.1317L54.5457 28.6956C54.0084 30.279 52.283 31.1457 50.692 30.6315C49.101 30.1173 48.2469 28.4169 48.7842 26.8335L52.7085 15.2696Z" stroke="black" stroke-miterlimit="1.30541"/>
<path d="M37.48 137.344C29.8853 137.344 23.4 135.36 18.024 131.392C12.648 127.424 8.53067 121.728 5.672 114.304C2.856 106.88 1.448 97.984 1.448 87.616C1.448 77.376 2.856 68.5866 5.672 61.2479C8.53067 53.8666 12.648 48.2133 18.024 44.2879C23.4 40.3626 29.8853 38.3999 37.48 38.3999C45.1173 38.3999 51.624 40.3626 57 44.2879C62.376 48.2133 66.472 53.8666 69.288 61.2479C72.1467 68.5866 73.576 77.376 73.576 87.616C73.576 97.984 72.1467 106.88 69.288 114.304C66.472 121.728 62.376 127.424 57 131.392C51.624 135.36 45.1173 137.344 37.48 137.344ZM37.48 128.064C46.056 128.064 52.584 124.523 57.064 117.44C61.544 110.315 63.784 100.373 63.784 87.616C63.784 74.9013 61.544 65.0666 57.064 58.112C52.584 51.1573 46.056 47.6799 37.48 47.6799C28.9893 47.6799 22.4827 51.1573 17.96 58.112C13.48 65.0666 11.24 74.9013 11.24 87.616C11.24 100.373 13.48 110.315 17.96 117.44C22.4827 124.523 28.9893 128.064 37.48 128.064Z" stroke="black" stroke-miterlimit="1.30541"/>
</svg>
